<?xml version="1.0" encoding="UTF-8" standalone="no"?>
<!-- Created with Inkscape (http://www.inkscape.org/) -->

<svg
   width="16"
   height="16"
   viewBox="0 0 4.2333332 4.2333335"
   version="1.1"
   id="svg6701"
   inkscape:version="1.1.1 (3bf5ae0d25, 2021-09-20)"
   sodipodi:docname="fav-icon.svg"
   xmlns:inkscape="http://www.inkscape.org/namespaces/inkscape"
   xmlns:sodipodi="http://sodipodi.sourceforge.net/DTD/sodipodi-0.dtd"
   xmlns="http://www.w3.org/2000/svg"
   xmlns:svg="http://www.w3.org/2000/svg">
  <sodipodi:namedview
     id="namedview6703"
     pagecolor="#505050"
     bordercolor="#eeeeee"
     borderopacity="1"
     inkscape:pageshadow="0"
     inkscape:pageopacity="0"
     inkscape:pagecheckerboard="0"
     inkscape:document-units="mm"
     showgrid="false"
     units="px"
     inkscape:zoom="11.086736"
     inkscape:cx="8.6138968"
     inkscape:cy="15.739529"
     inkscape:window-width="1280"
     inkscape:window-height="777"
     inkscape:window-x="-8"
     inkscape:window-y="-8"
     inkscape:window-maximized="1"
     inkscape:current-layer="text8022" />
  <defs
     id="defs6698" />
  <g
     inkscape:label="Layer 1"
     inkscape:groupmode="layer"
     id="layer1">
    <rect
       id="rect6727"
       width="4.2356248"
       height="4.2440619"
       x="0"
       y="-6.0024247e-10"
       style="display:none;fill:#941117;fill-opacity:1;stroke-width:0.265111"
       ry="0" />
    <ellipse
       style="fill:#941117;fill-opacity:1;stroke-width:0.264583"
       id="path10770"
       cx="2.1478369"
       cy="2.1120396"
       rx="1.9807829"
       ry="2.0643098" />
    <g
       aria-label="li"
       transform="scale(1.1539109,0.86661802)"
       id="text8022"
       style="font-size:4.06362px;line-height:1.25;font-family:bas;-inkscape-font-specification:bas;stroke-width:0.101591">
      <path
         d="M 0.95667718,1.1607672 1.5261396,1.0893364 v 2.2143555 l 0.00198,0.1507984 q 0,0.1349249 0.015874,0.1984189 0.015873,0.06151 0.06151,0.1031779 0.055557,0.053573 0.2043716,0.081352 v 0.039684 H 0.93485109 v -0.039684 q 0.11905141,-0.015874 0.17064031,-0.043652 0.051589,-0.029763 0.083336,-0.09921 0.021826,-0.045636 0.029763,-0.1369091 0.00992,-0.093257 0.00992,-0.2678656 V 1.7322138 q 0,-0.2023873 -0.00992,-0.2857233 -0.00992,-0.083336 -0.043652,-0.1349249 -0.033731,-0.055557 -0.081352,-0.079368 -0.047621,-0.02381 -0.13690912,-0.029763 z"
         style="font-family:'Baskerville Old Face';-inkscape-font-specification:'Baskerville Old Face';fill:#f2f2f2"
         id="path825" />
      <path
         d="m 1.9408352,2.2282612 0.5694623,-0.071431 v 1.1468616 l 0.00198,0.1507984 q 0,0.1349249 0.015874,0.1984189 0.015874,0.06151 0.06151,0.1031779 0.055557,0.053573 0.2043715,0.081352 V 3.877123 H 1.9190091 V 3.837439 q 0.1190513,-0.015874 0.1706403,-0.043652 0.051589,-0.029763 0.083336,-0.09921 0.021826,-0.045636 0.029763,-0.1369091 0.00992,-0.093257 0.00992,-0.2678656 V 2.7997077 q 0,-0.2043715 -0.00992,-0.2857232 Q 2.1928272,2.4306485 2.159096,2.3790596 2.1253648,2.3235023 2.0777442,2.299692 2.0301237,2.2738975 1.9408352,2.267945 Z M 2.3535466,1.4484747 q -0.077383,0 -0.1289723,-0.049605 -0.049605,-0.049605 -0.049605,-0.125004 0,-0.073415 0.051589,-0.1230197 0.051589,-0.051589 0.1269882,-0.051589 0.075399,0 0.1269881,0.051589 0.051589,0.049605 0.051589,0.1230197 0,0.075399 -0.051589,0.125004 -0.049605,0.049605 -0.126988,0.049605 z"
         style="font-family:'Baskerville Old Face';-inkscape-font-specification:'Baskerville Old Face';fill:#f2f2f2"
         id="path827" />
    </g>
  </g>
</svg>
