<svg xmlns="http://www.w3.org/2000/svg" xmlns:svg="http://www.w3.org/2000/svg" id="svg6701" width="16" height="16" version="1.1" viewBox="0 0 4.233 4.233"><g id="layer1"><rect id="rect6727" width="4.236" height="4.244" x="0" y="0" ry="0" style="display:none;fill:#941117;fill-opacity:1;stroke-width:.265111"/><ellipse style="fill:#941117;fill-opacity:1;stroke-width:.264583" id="path10770" cx="2.148" cy="2.112" rx="1.981" ry="2.064"/><g id="text8022" aria-label="li" transform="scale(1.1539109,0.86661802)" style="font-size:4.06362px;line-height:1.25;font-family:bas;-inkscape-font-specification:bas;stroke-width:.101591"><path style="font-family:'Baskerville Old Face';-inkscape-font-specification:'Baskerville Old Face';fill:#f2f2f2" id="path825" d="M 0.95667718,1.1607672 1.5261396,1.0893364 v 2.2143555 l 0.00198,0.1507984 q 0,0.1349249 0.015874,0.1984189 0.015873,0.06151 0.06151,0.1031779 0.055557,0.053573 0.2043716,0.081352 v 0.039684 H 0.93485109 v -0.039684 q 0.11905141,-0.015874 0.17064031,-0.043652 0.051589,-0.029763 0.083336,-0.09921 0.021826,-0.045636 0.029763,-0.1369091 0.00992,-0.093257 0.00992,-0.2678656 V 1.7322138 q 0,-0.2023873 -0.00992,-0.2857233 -0.00992,-0.083336 -0.043652,-0.1349249 -0.033731,-0.055557 -0.081352,-0.079368 -0.047621,-0.02381 -0.13690912,-0.029763 z"/><path style="font-family:'Baskerville Old Face';-inkscape-font-specification:'Baskerville Old Face';fill:#f2f2f2" id="path827" d="m 1.9408352,2.2282612 0.5694623,-0.071431 v 1.1468616 l 0.00198,0.1507984 q 0,0.1349249 0.015874,0.1984189 0.015874,0.06151 0.06151,0.1031779 0.055557,0.053573 0.2043715,0.081352 V 3.877123 H 1.9190091 V 3.837439 q 0.1190513,-0.015874 0.1706403,-0.043652 0.051589,-0.029763 0.083336,-0.09921 0.021826,-0.045636 0.029763,-0.1369091 0.00992,-0.093257 0.00992,-0.2678656 V 2.7997077 q 0,-0.2043715 -0.00992,-0.2857232 Q 2.1928272,2.4306485 2.159096,2.3790596 2.1253648,2.3235023 2.0777442,2.299692 2.0301237,2.2738975 1.9408352,2.267945 Z M 2.3535466,1.4484747 q -0.077383,0 -0.1289723,-0.049605 -0.049605,-0.049605 -0.049605,-0.125004 0,-0.073415 0.051589,-0.1230197 0.051589,-0.051589 0.1269882,-0.051589 0.075399,0 0.1269881,0.051589 0.051589,0.049605 0.051589,0.1230197 0,0.075399 -0.051589,0.125004 -0.049605,0.049605 -0.126988,0.049605 z"/></g></g></svg>