<svg xmlns="http://www.w3.org/2000/svg" xmlns:svg="http://www.w3.org/2000/svg" id="svg5" width="253mm" height="70mm" version="1.1" viewBox="0 0 253 70"><g id="layer1"><g id="text1046" aria-label="lipstations" transform="scale(1.0104946,0.98961439)" style="font-size:75.7836px;line-height:1.25;font-family:'Baskerville Old Face';-inkscape-font-specification:'Baskerville Old Face';letter-spacing:-4.58439px;word-spacing:-.355898px;fill:#e6e6e6;stroke-width:1.89459"><path id="path4676" d="M 1.1393871,4.195691 11.759452,2.8635574 V 44.159699 l 0.037,2.812282 q 0,2.516252 0.296029,3.700371 0.29603,1.147115 1.147116,1.924193 1.036103,0.9991 3.811382,1.517152 v 0.740074 H 0.73234625 V 54.113697 Q 2.9525689,53.817667 3.9146654,53.299615 4.8767619,52.74456 5.4688212,51.44943 5.8758621,50.598344 6.0238769,48.896174 6.2088955,47.156999 6.2088955,43.900673 V 14.85276 q 0,-3.774379 -0.1850186,-5.3285346 Q 5.8388584,7.9700695 5.2097953,7.0079731 4.5807322,5.9718692 3.6926431,5.5278246 2.8045541,5.0837801 1.1393871,4.972769 Z"/><path id="path4678" d="m 14.908836,24.103687 10.620065,-1.332133 v 21.388145 l 0.037,2.812282 q 0,2.516252 0.29603,3.700371 0.296029,1.147115 1.147115,1.924193 1.036104,0.9991 3.811382,1.517152 v 0.740074 H 14.501795 v -0.740074 q 2.220223,-0.29603 3.18232,-0.814082 0.962096,-0.555055 1.554155,-1.850185 0.407041,-0.851086 0.555056,-2.553256 0.185019,-1.739175 0.185019,-4.995501 v -9.139917 q 0,-3.811382 -0.185019,-5.328534 -0.185018,-1.554156 -0.814081,-2.516252 -0.629064,-1.036104 -1.517153,-1.480149 -0.888089,-0.481048 -2.553256,-0.592059 z M 22.605608,9.5612291 q -1.443145,0 -2.405241,-0.9250928 -0.925093,-0.9250927 -0.925093,-2.3312337 0,-1.3691373 0.962097,-2.2942301 0.962096,-0.9620965 2.368237,-0.9620965 1.406141,0 2.368238,0.9620965 0.962096,0.9250928 0.962096,2.2942301 0,1.406141 -0.962096,2.3312337 -0.925093,0.9250928 -2.368238,0.9250928 z"/><path id="path4680" d="m 39.557377,51.745459 0.037,6.808683 v 2.553256 q 0,2.516253 0.29603,3.663368 0.29603,1.184118 1.147115,1.9982 1.036104,0.9991 3.811382,1.480149 v 0.740074 H 28.530271 v -0.740074 q 2.220222,-0.29603 3.182319,-0.814082 0.962096,-0.518052 1.554156,-1.813182 0.407041,-0.851085 0.555055,-2.59026 0.185019,-1.739174 0.185019,-4.958497 V 32.50353 q 0,-4.181419 -1.332134,-5.957598 -1.29513,-1.776178 -4.403441,-1.776178 v -0.925092 l 10.76808,-1.517153 q 0.40704,1.776178 0.40704,3.256327 v 0.70307 q 2.738275,-1.850185 5.143516,-2.627263 2.405241,-0.814082 5.217523,-0.814082 5.624564,0 9.620965,3.367338 2.516253,2.146215 3.88539,5.365538 1.369137,3.219323 1.369137,7.104713 0,4.033404 -1.480148,7.511753 -1.443145,3.478349 -4.144416,5.735575 -4.218423,3.58936 -10.028005,3.58936 -2.775279,0 -4.810483,-0.814082 -1.9982,-0.814081 -4.662467,-2.960297 z m 0,-12.285232 q 0,5.106513 0.444044,7.696772 0.444045,2.59026 1.59116,4.18142 1.036104,1.406141 2.701271,2.257226 1.70217,0.851085 3.441345,0.851085 3.922393,0 6.845686,-3.700371 1.776178,-2.220222 2.738275,-5.254527 0.962096,-3.034304 0.962096,-6.327634 0,-3.182319 -0.925093,-6.216624 -0.888089,-3.071308 -2.516252,-5.254527 -2.775278,-3.774378 -6.771679,-3.774378 -1.961197,0 -3.700371,0.962096 -1.739174,0.962097 -2.775278,2.627264 -1.147115,1.776178 -1.59116,4.440445 -0.444044,2.627264 -0.444044,7.511753 z"/><path id="path4682" d="m 65.945095,54.853771 v -10.47205 h 0.592059 q 1.036104,3.848386 2.59026,6.142616 2.849286,4.181419 6.660668,4.181419 2.331234,0 4.033404,-1.406141 1.850186,-1.554156 1.850186,-4.403441 0,-2.331234 -1.332134,-4.070408 -0.740074,-0.925093 -1.887189,-1.702171 -1.110111,-0.777078 -3.774378,-2.183219 -4.662468,-2.479249 -6.216624,-4.144416 -2.220223,-2.368237 -2.220223,-5.476549 0,-3.330334 2.220223,-5.735575 2.553256,-2.738275 6.771679,-2.738275 1.887189,0 3.515353,0.666067 l 1.258126,0.555056 q 0.592059,0.222022 1.036104,0.222022 0.70307,0 1.332133,-1.110111 h 0.740075 l 0.40704,8.399842 H 82.74478 q -0.407041,-1.776178 -0.88809,-2.849286 -0.444044,-1.073107 -1.295129,-2.072207 -1.147115,-1.406141 -2.664268,-2.183219 -1.517152,-0.814082 -2.9973,-0.814082 -2.072208,0 -3.552356,1.517152 -1.443145,1.480149 -1.443145,3.663367 0,1.813182 1.29513,3.293331 1.332133,1.443144 4.070408,2.664267 l 3.922393,1.776178 q 3.515353,1.59116 5.254527,3.959397 1.739175,2.368238 1.739175,5.58756 0,3.88539 -2.516253,6.438646 -2.886289,2.960297 -7.400742,2.960297 -2.442245,0 -4.958497,-0.962096 -1.628163,-0.629064 -1.961197,-0.703071 -0.333033,-0.111011 -0.851085,-0.111011 -1.29513,0 -1.961197,1.110111 z"/><path id="path4684" d="m 95.145095,23.400617 h 9.435945 v 1.406141 h -9.435945 v 21.53616 q 0,3.885389 1.332134,5.550556 0.70307,0.925093 1.850185,1.443145 1.147115,0.518052 2.479246,0.518052 1.66517,0 2.77528,-0.666067 1.11011,-0.70307 2.44225,-2.516252 l 0.55505,0.481048 q -1.22112,2.220223 -3.44134,3.29333 -2.18322,1.073108 -5.476553,1.073108 -4.366438,0 -6.364638,-1.702171 -1.073108,-0.888089 -1.406141,-2.109211 -0.333033,-1.258126 -0.333033,-4.477449 V 24.806758 h -3.959397 v -0.592059 q 2.405241,-0.777078 4.440445,-2.997301 1.221122,-1.369137 1.961197,-2.701271 0.740074,-1.369137 1.406141,-3.515352 l 0.370037,-1.221123 h 1.369137 z"/><path id="path4686" d="m 132.30089,51.264411 0.62906,0.370037 q -1.33213,3.88539 -6.10561,3.88539 -2.62727,0 -4.36644,-1.29513 -1.14712,-0.851085 -2.36824,-2.960297 -2.47925,2.220223 -3.73737,2.923293 -2.40525,1.332134 -5.58756,1.332134 -4.07041,0 -6.47565,-1.961197 -2.36824,-1.961196 -2.36824,-5.29153 0,-3.071308 1.9612,-5.143516 1.11011,-1.147115 2.55325,-1.813182 1.44315,-0.70307 4.18142,-1.406141 3.21932,-0.814082 4.73648,-1.369137 1.55415,-0.555056 2.59026,-1.332134 1.18411,-0.851085 1.62816,-1.9982 0.44404,-1.147115 0.44404,-3.182319 0,-4.329435 -1.62816,-6.327635 -0.74007,-0.925093 -1.92419,-1.480148 -1.14712,-0.555056 -2.40524,-0.555056 -1.51716,0 -2.70127,0.777078 -1.18412,0.777078 -1.77618,2.146215 l -0.9251,2.146215 q -0.74007,1.739175 -2.66426,1.739175 -1.25813,0 -2.10921,-0.814082 -0.85109,-0.851085 -0.85109,-2.109211 0,-1.88719 2.66427,-3.18232 1.44314,-0.666066 3.55235,-1.073107 2.14622,-0.444045 4.18142,-0.444045 2.29423,0 4.77348,0.59206 2.47925,0.592059 4.14442,1.517152 2.40524,1.369137 2.9973,3.552356 0.29603,1.110111 0.29603,3.737375 v 13.691373 q 0,3.478349 0.29603,4.736475 0.62906,2.627263 3.0343,2.627263 1.14712,0 1.77618,-0.40704 0.66607,-0.407041 1.55416,-1.628164 z M 120.08966,36.684949 q -1.9982,1.665167 -4.40344,2.923293 -2.70127,1.443145 -3.73738,2.183219 -1.0361,0.740074 -1.88718,1.776178 -1.73918,2.146216 -1.73918,4.995501 0,2.442245 1.33213,4.033405 1.36914,1.591159 3.44135,1.591159 1.81318,0 3.40434,-1.110111 1.62816,-1.147115 2.44225,-3.034304 1.14711,-2.479249 1.14711,-7.17872 z"/><path id="path4688" d="m 137.96653,23.400617 h 9.43595 v 1.406141 h -9.43595 v 21.53616 q 0,3.885389 1.33213,5.550556 0.70307,0.925093 1.85019,1.443145 1.14711,0.518052 2.47925,0.518052 1.66516,0 2.77528,-0.666067 1.11011,-0.70307 2.44224,-2.516252 l 0.55506,0.481048 q -1.22113,2.220223 -3.44135,3.29333 -2.18322,1.073108 -5.47655,1.073108 -4.36644,0 -6.36464,-1.702171 -1.0731,-0.888089 -1.40614,-2.109211 -0.33303,-1.258126 -0.33303,-4.477449 V 24.806758 h -3.9594 v -0.592059 q 2.40524,-0.777078 4.44045,-2.997301 1.22112,-1.369137 1.96119,-2.701271 0.74008,-1.369137 1.40614,-3.515352 l 0.37004,-1.221123 h 1.36914 z"/><path id="path4690" d="m 143.89119,24.103687 10.62006,-1.332133 v 21.388145 l 0.037,2.812282 q 0,2.516252 0.29603,3.700371 0.29603,1.147115 1.14711,1.924193 1.0361,0.9991 3.81138,1.517152 v 0.740074 h -16.31863 v -0.740074 q 2.22022,-0.29603 3.18232,-0.814082 0.96209,-0.555055 1.55415,-1.850185 0.40704,-0.851086 0.55506,-2.553256 0.18502,-1.739175 0.18502,-4.995501 v -9.139917 q 0,-3.811382 -0.18502,-5.328534 -0.18502,-1.554156 -0.81408,-2.516252 -0.62907,-1.036104 -1.51716,-1.480149 -0.88809,-0.481048 -2.55325,-0.592059 z m 7.69677,-14.5424579 q -1.44315,0 -2.40524,-0.9250928 -0.92509,-0.9250927 -0.92509,-2.3312337 0,-1.3691373 0.96209,-2.2942301 0.9621,-0.9620965 2.36824,-0.9620965 1.40614,0 2.36824,0.9620965 0.96209,0.9250928 0.96209,2.2942301 0,1.406141 -0.96209,2.3312337 -0.9251,0.9250928 -2.36824,0.9250928 z"/><path id="path4692" d="m 158.51173,39.238205 q 0,-5.994601 4.44044,-10.694072 5.40255,-5.698572 12.9143,-5.698572 7.51175,0 12.87729,5.698572 4.44044,4.736475 4.44044,10.731076 0,5.920594 -4.21842,10.546058 -5.18052,5.698571 -13.09931,5.698571 -7.9188,0 -13.13632,-5.698571 -2.0352,-2.220223 -3.14531,-4.958498 -1.07311,-2.738274 -1.07311,-5.624564 z m 6.73467,-0.407041 q 0,6.438646 2.88629,10.916095 3.25633,4.995501 7.9558,4.995501 1.9982,0 3.88539,-1.110111 1.88719,-1.110112 3.25633,-3.108312 1.44314,-2.072208 2.33123,-5.180519 0.88809,-3.145316 0.88809,-6.068609 0,-3.034304 -0.9621,-6.105612 -0.92509,-3.108312 -2.51625,-5.328535 -3.0343,-4.181419 -7.43775,-4.181419 -4.18141,0 -7.21572,4.403442 -3.07131,4.403441 -3.07131,10.768079 z"/><path id="path4694" d="m 202.4022,22.771554 q 0.51805,2.146215 0.51805,3.996401 v 0.592059 q 4.58846,-4.514453 10.91609,-4.514453 4.73648,0 7.62277,2.220223 2.84928,2.183219 2.84928,6.216623 v 15.689574 q 0,2.516252 0.29603,3.700371 0.29603,1.147115 1.14712,1.924193 1.0361,0.9991 3.81138,1.517152 v 0.740074 h -16.31864 v -0.740074 q 2.22023,-0.29603 3.18232,-0.814082 0.9621,-0.555055 1.55416,-1.850185 0.40704,-0.851086 0.55506,-2.553256 0.18501,-1.739175 0.18501,-4.958497 V 36.09289 q 0,-4.033405 -0.29603,-5.920594 -0.25902,-1.887189 -1.0361,-3.034304 -0.85109,-1.29513 -2.44224,-1.998201 -1.59116,-0.740074 -3.51536,-0.740074 -2.07221,0 -3.88539,0.814082 -1.77618,0.814081 -2.81228,2.220222 -1.11011,1.480149 -1.48015,3.367338 -0.33303,1.850186 -0.33303,6.17962 v 7.252727 l 0.037,2.738275 q 0,2.516252 0.29603,3.700371 0.29603,1.147115 1.14712,1.924193 1.0361,0.9991 3.81138,1.517152 v 0.740074 h -16.31864 v -0.740074 q 2.22023,-0.29603 3.18232,-0.814082 0.9621,-0.555055 1.55416,-1.850185 0.40704,-0.851086 0.55505,-2.553256 0.18502,-1.739175 0.18502,-4.995501 v -9.139917 q 0,-3.811382 -0.18502,-5.328534 -0.18501,-1.554156 -0.81408,-2.516252 -0.62906,-1.036104 -1.51715,-1.480149 -0.88809,-0.481048 -2.55326,-0.592059 v -0.740075 z"/><path id="path4696" d="m 229.30797,54.853771 v -10.47205 h 0.59206 q 1.0361,3.848386 2.59026,6.142616 2.84929,4.181419 6.66067,4.181419 2.33123,0 4.0334,-1.406141 1.85019,-1.554156 1.85019,-4.403441 0,-2.331234 -1.33213,-4.070408 -0.74008,-0.925093 -1.88719,-1.702171 -1.11012,-0.777078 -3.77438,-2.183219 -4.66247,-2.479249 -6.21663,-4.144416 -2.22022,-2.368237 -2.22022,-5.476549 0,-3.330334 2.22022,-5.735575 2.55326,-2.738275 6.77168,-2.738275 1.88719,0 3.51536,0.666067 l 1.25812,0.555056 q 0.59206,0.222022 1.03611,0.222022 0.70307,0 1.33213,-1.110111 h 0.74007 l 0.40704,8.399842 h -0.77707 q -0.40704,-1.776178 -0.88809,-2.849286 -0.44405,-1.073107 -1.29513,-2.072207 -1.14712,-1.406141 -2.66427,-2.183219 -1.51715,-0.814082 -2.9973,-0.814082 -2.07221,0 -3.55236,1.517152 -1.44314,1.480149 -1.44314,3.663367 0,1.813182 1.29513,3.293331 1.33213,1.443144 4.07041,2.664267 l 3.92239,1.776178 q 3.51535,1.59116 5.25453,3.959397 1.73917,2.368238 1.73917,5.58756 0,3.88539 -2.51625,6.438646 -2.88629,2.960297 -7.40074,2.960297 -2.44225,0 -4.9585,-0.962096 -1.62816,-0.629064 -1.9612,-0.703071 -0.33303,-0.111011 -0.85108,-0.111011 -1.29513,0 -1.9612,1.110111 z"/></g></g></svg>